<svg width="28" height="28" viewBox="0 0 28 28" fill="none" xmlns="http://www.w3.org/2000/svg">
<path fill-rule="evenodd" clip-rule="evenodd" d="M23.6 7H4.4C3.76348 7 3.15303 7.24583 2.70294 7.68342C2.25286 8.121 2 8.71449 2 9.33333V18.6667C2 19.2855 2.25286 19.879 2.70294 20.3166C3.15303 20.7542 3.76348 21 4.4 21H23.6C24.2365 21 24.847 20.7542 25.2971 20.3166C25.7471 19.879 26 19.2855 26 18.6667V9.33333C26 8.71449 25.7471 8.121 25.2971 7.68342C24.847 7.24583 24.2365 7 23.6 7ZM10.748 17.2667L10.4 16.0183H8.192L7.844 17.2667H5.804L8 10.5817H10.508L12.8 17.2667H10.748ZM18.356 13.6033C18.2697 13.8798 18.1222 14.1347 17.924 14.35C17.6986 14.5771 17.4239 14.7524 17.12 14.8633C16.7361 15.0012 16.3292 15.0685 15.92 15.0617H15.392V17.2667H13.52V10.605H15.92C16.6146 10.5562 17.3041 10.7507 17.864 11.1533C18.0893 11.3503 18.2658 11.5943 18.3801 11.8671C18.4944 12.1399 18.5436 12.4344 18.524 12.7283C18.5172 13.0269 18.4604 13.3225 18.356 13.6033ZM21.452 17.2667H19.592V10.605H21.452V17.2667ZM9.74 13.4517L10.028 14.5367H8.576L8.864 13.4517C8.864 13.3 8.96 13.125 9.008 12.9033C9.056 12.6817 9.116 12.46 9.164 12.2383C9.21415 12.0539 9.2542 11.8669 9.284 11.6783C9.284 11.83 9.368 12.0167 9.416 12.2617L9.596 12.9383L9.74 13.4517ZM16.448 12.285C16.514 12.3511 16.5652 12.4299 16.5982 12.5162C16.6313 12.6026 16.6455 12.6947 16.64 12.7867C16.6467 12.9591 16.6007 13.1296 16.508 13.2767C16.429 13.392 16.3161 13.4814 16.184 13.5333C16.0436 13.5907 15.8923 13.6185 15.74 13.615H15.368V12.0633H15.848C15.949 12.0588 16.0499 12.0741 16.1447 12.1081C16.2395 12.1422 16.3263 12.1944 16.4 12.2617L16.448 12.285Z" fill="black"/>
</svg>
