<svg width="28" height="28" viewBox="0 0 28 28" fill="none" xmlns="http://www.w3.org/2000/svg">
<path d="M6.57143 2V15.8081H4.85714V12.9771H3.71429V15.8081H2V26H11.7143H19.7143H26V8.44733H19.7143V6.34061L18 5.7744V2.21897H16.8571V5.39618L15.7143 5.01908V2.21897H14.5714V4.64197L6.57143 2ZM7.71429 3.57147L18.5714 7.15676V24.8676H15.7143V23.0871C16.6947 22.8324 17.4286 21.9517 17.4286 20.9041C17.4286 19.6599 16.3985 18.6392 15.1429 18.6392C13.8873 18.6392 12.8571 19.6599 12.8571 20.9041C12.8571 21.9517 13.591 22.8324 14.5714 23.0871V24.8676H11.7143V15.8081H7.71429V3.57147ZM8.85714 6.74869V7.88112H12.2857V6.74869H8.85714ZM8.85714 9.01355V10.146H17.4286V9.01355H8.85714ZM20.8571 10.7122H23.7143V12.4108H20.8571V10.7122ZM8.85714 11.2784V12.4108H13.4286V11.2784H8.85714ZM14.5714 11.2784V12.4108H17.4286V11.2784H14.5714ZM8.85714 13.5433V14.6757H17.4286V13.5433H8.85714ZM20.8571 13.5433H23.7143V15.2419H20.8571V13.5433ZM12.8571 15.8081V16.9406H17.4286V15.8081H12.8571ZM20.8571 16.3743H23.7143V18.073H20.8571V16.3743ZM4.28571 18.073H6V19.2054H4.28571V18.073ZM7.71429 18.073H9.42857V19.2054H7.71429V18.073ZM20.8571 19.2054H23.7143V20.9041H20.8571V19.2054ZM4.28571 20.3378H6V21.4703H4.28571V20.3378ZM7.71429 20.3378H9.42857V21.4703H7.71429V20.3378ZM20.8571 22.0365H23.7143V23.7351H20.8571V22.0365ZM4.28571 22.6027H6V23.7351H4.28571V22.6027ZM7.71429 22.6027H9.42857V23.7351H7.71429V22.6027Z" fill="black"/>
</svg>
