<svg width="30" height="30" viewBox="0 0 30 30" fill="none" xmlns="http://www.w3.org/2000/svg">
<path d="M15 3C8.38443 3 3 8.38443 3 15C3 21.6156 8.38443 27 15 27C21.6156 27 27 21.6156 27 15C27 8.38443 21.6156 3 15 3ZM15 5C15.1807 5 15.4377 5.0956 15.7988 5.51562C16.16 5.93569 16.5547 6.64591 16.8887 7.56445C17.1159 8.18941 17.3041 8.93657 17.4707 9.73047C16.7039 9.87853 15.8764 9.97266 15 9.97266C14.123 9.97266 13.2961 9.8787 12.5293 9.73047C12.6959 8.93657 12.8841 8.18941 13.1113 7.56445C13.4453 6.64591 13.84 5.93569 14.2012 5.51562C14.5623 5.09557 14.8193 5 15 5ZM18.1777 5.52734C19.4403 5.95177 20.5931 6.61198 21.5742 7.46875C21.367 7.94057 20.8632 8.45399 19.9785 8.91406C19.8047 9.00444 19.5951 9.0806 19.3984 9.16211C19.22 8.34612 19.0172 7.56741 18.7676 6.88086C18.5896 6.39149 18.3928 5.94231 18.1777 5.52734ZM11.8203 5.5293C11.6057 5.94365 11.41 6.39238 11.2324 6.88086C10.983 7.56679 10.7819 8.345 10.6035 9.16016C10.4071 9.07873 10.197 9.00433 10.0234 8.91406C9.13876 8.45399 8.63498 7.94057 8.42773 7.46875C9.40804 6.61294 10.5594 5.95386 11.8203 5.5293ZM7.01562 8.98828C7.52142 9.67347 8.25513 10.2473 9.10156 10.6875C9.45999 10.8739 9.84901 11.0371 10.2539 11.1855C10.1377 12.0809 10.0662 13.0226 10.0352 14H5.04883C5.23406 12.1253 5.94349 10.4115 7.01562 8.98828ZM22.9863 8.99023C24.0575 10.413 24.766 12.1262 24.9512 14H19.9648C19.9338 13.0226 19.8623 12.0809 19.7461 11.1855C20.1512 11.0371 20.5419 10.8739 20.9004 10.6875C21.7463 10.2476 22.4806 9.67484 22.9863 8.99023ZM12.2109 11.7031C13.0911 11.8684 14.0201 11.9727 15 11.9727C15.9791 11.9727 16.9091 11.8701 17.7891 11.7051C17.877 12.4378 17.9349 13.2025 17.9629 14H12.0371C12.0651 13.2018 12.1229 12.4364 12.2109 11.7031ZM5.04883 16H10.0352C10.0654 16.9523 10.1349 17.8694 10.2461 18.7441C9.84428 18.8918 9.45739 19.0532 9.10156 19.2383C8.24007 19.6863 7.49497 20.2733 6.98828 20.9746C5.93177 19.5586 5.23246 17.8586 5.04883 16ZM12.0371 16H17.9629C17.9359 16.7714 17.8821 17.5115 17.7988 18.2227C16.9168 18.0565 15.9843 17.9532 15.002 17.9531H15C14.0177 17.9532 13.0855 18.0565 12.2031 18.2227C12.1198 17.5115 12.0642 16.7715 12.0371 16ZM19.9648 16H24.9512C24.7675 17.8586 24.0682 19.5586 23.0117 20.9746C22.505 20.2733 21.7599 19.6863 20.8984 19.2383C20.5426 19.0532 20.1556 18.8918 19.7539 18.7441C19.8651 17.8694 19.9346 16.9523 19.9648 16ZM15 19.9531C15.882 19.9531 16.714 20.0474 17.4844 20.1973C17.3149 21.0193 17.1227 21.792 16.8887 22.4355C16.5547 23.3541 16.16 24.0643 15.7988 24.4844C15.4377 24.9044 15.1807 25 15 25C14.8193 25 14.5623 24.9044 14.2012 24.4844C13.84 24.0643 13.4453 23.3541 13.1113 22.4355C12.8773 21.792 12.6851 21.0193 12.5156 20.1973C13.2861 20.0476 14.1185 19.9531 15 19.9531ZM10.5898 20.7695C10.7711 21.6109 10.976 22.4139 11.2324 23.1191C11.41 23.6076 11.6057 24.0563 11.8203 24.4707C10.5479 24.0423 9.3864 23.3749 8.40039 22.5078C8.59484 22.0223 9.10579 21.4879 10.0215 21.0117C10.1917 20.9232 10.3977 20.8496 10.5898 20.7695ZM19.4102 20.7715C19.6014 20.8512 19.8071 20.9236 19.9766 21.0117C20.8935 21.4886 21.4038 22.0237 21.5977 22.5098C20.6118 23.3762 19.4517 24.0427 18.1797 24.4707C18.3943 24.0563 18.59 23.6076 18.7676 23.1191C19.0238 22.4145 19.229 21.6122 19.4102 20.7715Z" fill="black"/>
</svg>
