<svg width="232" height="38" viewBox="0 0 232 38" fill="none" xmlns="http://www.w3.org/2000/svg">
<path d="M7.781 30L0.682 8.3H5.89L12.059 27.52H9.455L15.903 8.3H20.553L26.753 27.52H24.242L30.566 8.3H35.371L28.272 30H22.878L17.391 13.136H18.817L13.175 30H7.781Z" fill="#1A4ADA"/>
<path d="M42.7936 17.042H53.2406V20.948H42.7936V17.042ZM43.1656 25.97H54.9766V30H38.1746V8.3H54.5736V12.33H43.1656V25.97ZM56.1204 30L65.7924 8.3H70.7524L80.4554 30H75.1854L67.2494 10.842H69.2334L61.2664 30H56.1204ZM60.9564 25.35L62.2894 21.537H73.4494L74.8134 25.35H60.9564ZM86.1119 30V12.392H79.1679V8.3H98.0779V12.392H91.1339V30H86.1119ZM115.66 8.3H120.682V30H115.66V8.3ZM105.802 30H100.78V8.3H105.802V30ZM116.032 21.103H105.43V16.856H116.032V21.103ZM130.435 17.042H140.882V20.948H130.435V17.042ZM130.807 25.97H142.618V30H125.816V8.3H142.215V12.33H130.807V25.97ZM146.614 30V8.3H156.007C157.95 8.3 159.624 8.62033 161.029 9.261C162.434 9.881 163.519 10.78 164.284 11.958C165.049 13.136 165.431 14.5413 165.431 16.174C165.431 17.786 165.049 19.181 164.284 20.359C163.519 21.5163 162.434 22.405 161.029 23.025C159.624 23.645 157.95 23.955 156.007 23.955H149.404L151.636 21.754V30H146.614ZM160.409 30L154.984 22.126H160.347L165.834 30H160.409ZM151.636 22.312L149.404 19.956H155.728C157.278 19.956 158.435 19.6253 159.2 18.964C159.965 18.282 160.347 17.352 160.347 16.174C160.347 14.9753 159.965 14.0453 159.2 13.384C158.435 12.7227 157.278 12.392 155.728 12.392H149.404L151.636 10.005V22.312ZM175.337 30L185.009 8.3H189.969L199.672 30H194.402L186.466 10.842H188.45L180.483 30H175.337ZM180.173 25.35L181.506 21.537H192.666L194.03 25.35H180.173ZM201.924 30V8.3H211.317C213.259 8.3 214.933 8.62033 216.339 9.261C217.744 9.881 218.829 10.78 219.594 11.958C220.358 13.136 220.741 14.5413 220.741 16.174C220.741 17.786 220.358 19.181 219.594 20.359C218.829 21.537 217.744 22.4463 216.339 23.087C214.933 23.707 213.259 24.017 211.317 24.017H204.714L206.946 21.754V30H201.924ZM206.946 22.312L204.714 19.925H211.038C212.588 19.925 213.745 19.5943 214.51 18.933C215.274 18.2717 215.657 17.352 215.657 16.174C215.657 14.9753 215.274 14.0453 214.51 13.384C213.745 12.7227 212.588 12.392 211.038 12.392H204.714L206.946 10.005V22.312ZM224.326 30V8.3H229.348V30H224.326Z" fill="white"/>
</svg>
